<?xml version="1.0" standalone="no"?>
<!DOCTYPE svg PUBLIC "-//W3C//DTD SVG 20010904//EN"
 "http://www.w3.org/TR/2001/REC-SVG-20010904/DTD/svg10.dtd">
<svg version="1.0" xmlns="http://www.w3.org/2000/svg"
 width="600.000000pt" height="600.000000pt" viewBox="0 0 600.000000 600.000000"
 preserveAspectRatio="xMidYMid meet">
<metadata>
Created by potrace 1.14, written by Peter Selinger 2001-2017
</metadata>
<g transform="translate(0.000000,600.000000) scale(0.100000,-0.100000)"
fill="#000000" stroke="none">
<path d="M3442 5714 c-37 -40 -56 -55 -68 -50 -9 3 -22 2 -28 -3 -6 -5 -42
-14 -80 -20 -89 -16 -188 -46 -251 -77 -30 -15 -51 -21 -53 -15 -2 6 -18 0
-36 -14 -18 -14 -38 -25 -45 -25 -40 0 -283 -148 -374 -228 -26 -23 -47 -32
-65 -31 -15 2 -43 -5 -63 -13 -34 -16 -110 -90 -122 -119 -5 -12 -7 -12 -16 1
-9 12 -11 11 -12 -10 -1 -14 -1 -31 0 -38 1 -7 -2 -12 -6 -11 -26 4 -34 -3
-29 -23 3 -13 3 -17 0 -10 -8 17 -17 15 -32 -9 -11 -17 -11 -20 0 -13 7 4 1
-5 -14 -21 -16 -15 -28 -34 -28 -42 0 -19 -61 -84 -72 -77 -5 3 -8 0 -7 -7 4
-22 -10 -57 -26 -63 -8 -3 -15 -12 -15 -21 0 -8 -4 -15 -9 -15 -5 0 -18 -20
-30 -44 -11 -25 -25 -47 -31 -51 -5 -3 -10 -16 -11 -28 0 -12 -3 -16 -6 -9 -6
16 -24 16 -21 0 2 -7 -7 -14 -20 -16 -19 -3 -20 -5 -8 -18 17 -16 9 -57 -9
-50 -7 2 -12 -1 -12 -7 1 -33 -4 -47 -16 -47 -8 0 -20 -11 -27 -25 -7 -14 -17
-25 -22 -25 -5 0 -6 -5 -2 -12 4 -6 -1 -17 -11 -25 -11 -7 -16 -13 -12 -13 4
0 -4 -19 -17 -42 -13 -24 -26 -55 -30 -70 -3 -16 -11 -28 -17 -28 -6 0 -8 -4
-4 -9 3 -5 1 -12 -5 -16 -6 -4 -8 -10 -6 -14 3 -4 1 -23 -4 -42 -5 -19 -12
-59 -15 -89 -4 -30 -8 -57 -10 -60 -10 -16 -20 -267 -19 -492 1 -206 -2 -255
-12 -251 -9 3 -12 -2 -9 -16 2 -12 1 -21 -3 -21 -4 0 -7 -16 -8 -35 0 -19 3
-32 7 -29 5 3 15 -11 23 -30 15 -36 18 -256 4 -256 -5 0 -8 -6 -8 -14 0 -8 -9
-18 -20 -21 -17 -5 -18 -10 -9 -27 6 -11 8 -30 5 -43 -3 -13 -1 -27 5 -31 7
-4 9 -21 5 -45 -5 -32 -3 -39 14 -44 18 -6 20 -15 20 -86 0 -44 4 -121 9 -172
6 -51 12 -114 15 -142 6 -60 16 -95 26 -95 4 0 7 -17 7 -38 0 -58 41 -217 64
-247 14 -19 79 -196 79 -215 0 -9 6 -23 14 -29 8 -6 16 -25 18 -41 4 -23 -1
-33 -25 -50 -16 -12 -26 -24 -23 -28 4 -3 -6 -18 -21 -34 -15 -15 -23 -28 -19
-28 4 0 -2 -12 -13 -26 -23 -30 -28 -49 -8 -38 6 4 4 -2 -6 -13 -18 -20 -22
-51 -18 -138 1 -31 4 -37 12 -25 8 12 9 9 5 -11 -4 -17 -1 -31 9 -39 8 -7 15
-19 15 -27 0 -8 7 -21 15 -29 8 -9 15 -24 15 -34 0 -10 7 -20 15 -24 8 -3 15
-17 15 -31 0 -14 6 -25 13 -25 13 0 57 -59 57 -78 0 -7 4 -11 9 -9 12 3 51
-43 51 -60 0 -8 5 -11 10 -8 6 3 15 -6 20 -20 6 -15 24 -40 40 -56 16 -17 37
-47 47 -67 9 -20 22 -40 27 -44 6 -4 7 -10 4 -14 -12 -11 33 -66 49 -60 10 4
13 1 9 -12 -5 -16 28 -66 88 -134 9 -10 16 -22 16 -28 0 -17 34 -80 43 -80 5
0 7 -7 4 -15 -4 -8 -1 -17 4 -21 6 -3 9 -18 6 -32 -3 -14 2 -40 11 -58 13 -28
18 -32 35 -22 12 6 16 13 9 17 -6 4 -8 12 -4 19 11 17 69 -2 107 -34 17 -15
23 -23 15 -18 -8 4 -2 -5 13 -19 15 -15 32 -27 38 -27 5 0 8 -5 6 -12 -1 -7 3
-12 8 -13 21 -1 67 -39 81 -66 14 -29 15 -29 114 -29 l100 0 46 44 c26 25 59
48 75 51 15 4 33 13 40 21 6 8 21 14 33 14 11 0 61 22 110 50 49 27 92 47 97
44 5 -3 9 -1 9 5 0 5 21 17 48 27 26 10 54 24 62 31 8 7 58 41 110 76 132 86
124 82 114 66 -6 -11 -3 -10 11 1 17 14 18 13 12 -5 -5 -13 0 -10 17 10 13 17
30 30 38 30 8 0 12 10 10 25 -1 17 1 21 6 12 7 -10 13 -7 26 13 9 14 21 23 26
20 5 -3 20 18 34 47 14 29 37 67 51 83 19 22 23 24 15 8 -6 -13 -8 -23 -5 -23
3 0 15 21 26 46 12 25 30 51 41 57 10 7 28 32 40 55 12 26 24 39 28 33 3 -7
17 12 31 41 23 51 58 110 79 135 6 7 18 35 27 63 9 27 20 50 25 50 4 0 8 20 8
45 0 25 5 45 10 45 6 0 10 20 10 45 0 26 5 45 11 45 7 0 9 10 7 25 -3 14 -1
25 3 25 5 0 8 3 8 8 -1 4 -1 18 0 31 2 38 27 8 34 -42 4 -23 18 -105 32 -182
26 -146 33 -295 14 -295 -5 0 -8 -4 -4 -9 3 -5 1 -12 -3 -15 -5 -3 -9 -20 -10
-38 0 -28 -14 -46 -94 -122 -57 -55 -69 -68 -30 -35 95 80 125 99 61 38 -127
-123 -290 -271 -294 -267 -3 3 33 42 80 88 47 45 84 84 83 85 -2 2 -48 -40
-103 -91 -55 -52 -91 -92 -80 -88 13 5 5 -9 -25 -41 l-45 -49 50 41 c28 23 61
53 75 68 40 44 277 255 286 255 4 0 -3 -11 -16 -25 -13 -14 -25 -33 -26 -42
-2 -9 -9 -21 -16 -28 -30 -27 -326 -304 -372 -347 -27 -26 -51 -46 -53 -44 -4
4 186 190 312 306 44 40 91 84 105 98 22 22 22 23 3 10 -40 -26 -403 -370
-436 -412 -20 -27 -23 -34 -9 -22 31 27 27 8 -5 -28 -16 -17 35 30 113 104 77
74 183 173 235 219 52 46 -9 -19 -136 -144 -178 -176 -196 -196 -80 -88 249
233 294 271 190 165 -86 -88 -109 -127 -35 -60 19 18 -40 -40 -132 -130 -93
-90 -168 -169 -168 -175 0 -7 55 42 122 108 68 66 106 102 85 80 -37 -40 -51
-69 -22 -45 28 23 15 -6 -15 -35 -31 -30 -42 -25 -13 7 9 10 12 17 7 17 -5 -1
-42 -36 -82 -79 -53 -56 -71 -82 -66 -94 6 -15 17 -8 65 40 33 32 59 54 59 49
0 -5 -21 -31 -47 -57 -42 -43 -44 -47 -22 -46 13 1 41 17 61 37 21 19 38 29
38 22 0 -7 5 -9 11 -5 8 4 8 9 1 13 -6 4 35 54 95 116 64 68 82 83 45 40 -33
-38 -76 -86 -96 -104 -20 -19 -36 -40 -36 -45 0 -6 35 23 77 64 l77 75 -61
-70 c-58 -67 -152 -159 -124 -122 22 28 7 30 -19 2 l-22 -24 23 1 c15 1 54 30
108 82 l84 81 -71 -79 c-40 -44 -69 -82 -66 -85 3 -3 42 33 86 79 44 47 67 67
50 45 -16 -22 -42 -51 -57 -65 -15 -14 -31 -33 -37 -43 -8 -16 -5 -18 32 -15
40 2 52 12 86 73 6 11 21 36 32 55 12 19 25 42 29 50 19 41 89 149 112 174 14
16 20 25 12 21 -11 -6 -13 -4 -8 9 4 10 7 20 7 22 0 3 4 3 9 -1 6 -3 15 5 22
17 11 22 11 22 -6 8 -16 -13 -16 -11 2 25 11 22 28 57 38 77 19 41 31 48 38
20 3 -10 5 -6 6 11 1 17 -3 26 -9 22 -10 -6 22 57 40 80 4 6 22 37 40 70 18
33 35 62 39 65 10 7 71 97 71 105 0 4 7 13 14 21 13 13 13 20 0 57 -21 58 -24
77 -13 77 5 0 9 6 9 14 0 8 6 17 13 19 9 4 9 8 -2 15 -9 7 -10 11 -2 17 7 3 9
15 6 26 -4 12 2 34 13 54 22 36 20 45 -12 45 -13 0 -16 3 -10 8 15 9 -31 112
-51 112 -8 0 -18 8 -24 17 -6 11 -22 17 -44 17 -20 0 -33 4 -31 8 3 4 -2 8
-11 8 -9 0 -19 -9 -22 -20 -3 -12 -14 -20 -27 -20 -18 0 -19 -2 -6 -11 11 -8
7 -9 -19 -5 -18 3 -37 6 -41 6 -4 0 -10 6 -13 13 -3 7 5 13 19 13 13 1 21 -2
18 -7 -3 -5 0 -9 5 -9 13 0 14 20 2 38 -7 11 -9 11 -14 -2 -6 -15 -39 -17 -53
-4 -9 10 6 109 16 103 5 -3 12 9 15 27 4 18 20 59 36 90 16 32 29 64 29 72 0
9 14 41 30 71 17 30 30 64 30 75 0 11 5 20 10 20 6 0 10 6 10 13 0 7 9 30 20
52 11 22 20 48 20 58 0 10 14 71 30 135 17 64 33 133 36 152 3 19 8 51 11 70
3 19 7 112 9 205 1 94 6 233 11 310 9 165 9 370 -1 475 -3 41 -8 221 -10 400
-2 179 -7 336 -10 350 -8 35 -19 92 -21 110 0 8 -14 36 -29 62 -17 29 -25 55
-21 67 3 12 -3 29 -20 49 -14 16 -25 36 -25 42 0 7 -12 29 -27 48 -15 20 -20
32 -12 28 8 -4 5 0 -6 9 -11 9 -19 23 -17 31 2 7 -6 24 -17 35 -11 12 -18 26
-15 31 3 5 -2 18 -13 30 -10 11 -17 22 -15 24 9 15 -3 40 -33 67 -30 27 -35
38 -33 69 2 28 6 34 16 26 22 -19 12 1 -19 37 -17 20 -24 33 -15 29 29 -11 17
4 -29 37 -36 26 -45 38 -45 61 0 20 -11 40 -32 61 -18 18 -31 35 -30 40 1 4
-9 13 -23 19 -16 7 -24 17 -20 26 3 10 0 12 -10 9 -14 -6 -60 41 -51 51 11 10
96 -10 119 -28 14 -11 36 -24 50 -29 20 -8 25 -7 23 6 -2 9 -14 24 -27 35 -13
10 -28 22 -34 26 -5 4 -27 18 -47 31 -21 12 -38 26 -38 30 0 3 -21 13 -47 20
-64 19 -77 29 -61 49 7 9 9 13 3 10 -5 -3 -21 -1 -35 5 -25 10 -25 10 10 16
22 4 36 12 38 23 3 14 -6 16 -62 14 -36 -1 -68 -5 -72 -9 -16 -16 -34 -6 -34
20 0 25 -1 26 -14 8 -12 -16 -13 -8 -14 65 -1 46 -6 88 -12 94 -5 5 -10 20
-10 32 0 12 -7 28 -16 35 -15 12 -16 11 -9 -10 5 -17 4 -21 -5 -16 -7 4 -9 17
-6 31 4 13 2 24 -3 24 -5 0 -14 13 -21 30 -7 16 -20 35 -29 42 -14 11 -14 11
-4 -2 6 -8 19 -45 29 -82 14 -53 16 -72 6 -92 -13 -29 -35 -36 -25 -8 6 15 5
16 -12 2 -16 -14 -17 -13 -11 7 6 18 4 21 -16 15 -22 -5 -22 -5 -5 21 17 26
17 27 -2 27 -11 0 -23 -4 -26 -10 -3 -5 -16 -10 -28 -10 l-21 0 22 16 c12 8
22 19 22 24 0 5 -16 -2 -36 -15 -20 -14 -50 -25 -65 -25 -29 0 -38 13 -18 26
6 3 9 15 6 25 -3 12 5 27 25 44 16 14 26 25 22 25 -4 0 1 9 11 20 10 11 13 20
8 20 -6 0 -33 -25 -61 -56z m408 -368 c0 -2 -9 -6 -20 -9 -11 -3 -18 -1 -14 4
5 9 34 13 34 5z m-23 -72 c-3 -3 -12 -4 -19 -1 -8 3 -5 6 6 6 11 1 17 -2 13
-5z m-1377 -49 c-7 -8 -16 -12 -22 -9 -5 3 -20 -2 -35 -11 -17 -11 -24 -13
-21 -4 2 7 20 18 39 25 46 17 54 17 39 -1z m-121 -62 c-18 -21 -35 -40 -36
-42 -2 -2 -6 -2 -9 1 -7 8 55 78 69 78 6 0 -5 -17 -24 -37z m1781 -138 c13
-14 19 -25 13 -25 -5 0 -20 11 -33 25 -13 14 -19 25 -13 25 5 0 20 -11 33 -25z
m-733 -128 c34 -5 38 -15 17 -38 -19 -21 -19 -22 2 -15 17 5 23 2 28 -19 7
-27 36 -35 36 -10 0 8 -5 15 -11 15 -5 0 -8 4 -4 9 7 12 79 2 84 -11 2 -5 10
0 18 11 8 12 21 21 29 21 8 0 14 5 14 10 0 18 20 11 20 -7 1 -15 4 -14 20 5
15 19 23 21 39 13 15 -8 20 -7 26 6 3 10 9 13 13 8 12 -17 52 -36 62 -30 6 3
31 -3 56 -14 25 -12 50 -19 54 -16 4 2 16 -5 26 -18 10 -12 12 -16 4 -9 -8 6
-20 12 -28 12 -12 0 -12 -3 -1 -16 10 -13 10 -17 -2 -25 -27 -17 17 -10 66 11
56 24 55 24 55 5 0 -18 12 -19 29 -2 10 10 11 9 6 -4 -4 -10 -2 -20 4 -24 6
-3 11 -1 11 6 0 8 4 8 15 -1 8 -7 15 -17 15 -22 0 -5 13 -20 29 -34 37 -31
146 -215 187 -315 17 -43 35 -84 41 -91 13 -17 36 -76 32 -80 -2 -2 6 -14 19
-28 18 -20 20 -25 8 -32 -13 -7 -12 -14 3 -51 29 -66 35 -82 40 -102 0 -3 2
-7 2 -10 16 -48 36 -180 34 -223 -1 -32 2 -75 7 -97 11 -45 13 -53 28 -150 28
-185 37 -480 18 -583 -6 -35 -21 -304 -22 -412 0 -14 -3 -27 -6 -30 -9 -9 -30
-76 -30 -98 0 -12 -4 -22 -10 -22 -5 0 -13 -12 -16 -27 -4 -16 -12 -31 -17
-35 -7 -4 -6 -12 2 -22 8 -9 9 -16 3 -16 -5 0 -12 7 -16 15 -11 29 -24 14 -30
-36 -8 -58 -2 -71 18 -44 12 16 13 15 8 -13 -4 -27 -7 -30 -23 -22 -16 9 -20
5 -29 -30 -6 -22 -15 -40 -20 -40 -6 0 -10 -7 -10 -16 0 -8 -7 -22 -16 -31 -8
-9 -13 -22 -9 -31 5 -13 3 -13 -11 -1 -16 13 -17 10 -12 -34 6 -53 6 -54 -16
-12 -13 25 -16 27 -22 11 -4 -10 -2 -27 4 -37 14 -21 16 -65 4 -73 -4 -2 -8 5
-7 17 0 12 -4 22 -10 22 -5 0 -10 -13 -11 -30 -2 -58 -2 -60 -23 -41 -11 10
-25 31 -31 47 -7 16 -16 29 -20 29 -10 0 -1 -38 11 -46 5 -3 9 -10 9 -16 0 -7
-13 0 -28 15 -32 31 -38 32 -45 13 -4 -11 -1 -13 10 -9 13 5 15 2 10 -11 -5
-11 -3 -15 5 -10 8 5 9 2 4 -11 -4 -11 0 -25 9 -35 14 -16 14 -19 -4 -41 l-20
-24 -1 28 c0 17 -5 27 -15 27 -7 0 -18 8 -24 17 -5 10 -13 14 -17 10 -4 -4 -2
-13 4 -19 15 -15 16 -32 2 -23 -5 3 -11 -3 -11 -14 -1 -12 -3 -25 -4 -31 -1
-5 -3 -15 -4 -21 0 -5 -6 -7 -13 -3 -8 5 -9 2 -5 -9 3 -9 2 -19 -4 -23 -6 -3
-8 -13 -5 -21 5 -11 2 -13 -10 -9 -11 4 -9 -3 7 -27 18 -25 19 -29 5 -17 -18
14 -18 13 -11 -10 6 -20 5 -23 -6 -14 -8 6 -24 14 -37 17 -20 5 -21 3 -10 -10
7 -9 14 -36 15 -60 2 -25 8 -55 15 -66 11 -22 11 -22 -11 -3 -15 14 -21 15
-21 6 0 -11 -3 -11 -12 -2 -7 7 -16 12 -22 12 -6 0 -5 -5 2 -12 7 -7 12 -18
12 -26 0 -12 -3 -12 -15 -2 -18 15 -20 -1 -2 -19 10 -11 8 -11 -13 -1 l-25 13
19 -22 c11 -11 15 -21 11 -21 -4 0 0 -10 11 -22 10 -13 12 -17 4 -11 -8 7 -24
13 -36 13 -13 0 -26 5 -30 12 -5 8 -2 9 9 5 24 -9 21 6 -4 22 -16 9 -18 15
-10 20 8 6 4 13 -13 25 -27 17 -35 9 -13 -13 10 -10 7 -11 -15 -6 -22 6 -28 4
-28 -9 0 -9 5 -16 10 -16 13 0 50 -37 50 -50 0 -6 -18 7 -41 28 -27 27 -47 38
-60 35 -10 -3 -17 -9 -14 -13 3 -5 -1 -11 -7 -13 -10 -4 -9 -8 2 -16 12 -9 11
-11 -9 -11 l-24 0 27 -25 c32 -30 32 -33 1 -30 -25 3 -34 -8 -16 -19 5 -4 8
-14 6 -24 -2 -9 -4 -21 -4 -25 -1 -5 -6 -5 -12 -1 -8 4 -7 9 2 15 10 6 10 9 2
9 -25 0 -21 -17 12 -53 18 -20 36 -46 40 -57 6 -19 5 -20 -14 -8 -12 7 -21 21
-21 32 0 14 -3 16 -13 7 -8 -6 -17 -7 -21 -3 -4 4 -2 -5 5 -20 6 -15 15 -25
19 -23 4 3 14 -3 21 -13 13 -15 12 -16 -3 -3 -10 7 -18 10 -18 5 0 -4 -9 2
-20 14 -19 20 -50 30 -50 17 0 -3 10 -16 23 -28 39 -38 53 -64 16 -29 -39 36
-75 46 -44 12 18 -20 18 -21 -1 -14 -10 4 -24 11 -31 16 -7 6 -14 2 -18 -12
-4 -12 -12 -19 -20 -16 -24 9 -22 -16 3 -64 14 -25 19 -40 12 -33 -7 6 -17 21
-24 34 -6 12 -15 21 -20 19 -5 -1 -13 5 -18 14 -11 20 -38 21 -38 1 0 -8 -7
-15 -15 -15 -9 0 -12 -6 -8 -17 5 -12 3 -14 -7 -8 -10 6 -12 3 -8 -13 6 -20 5
-20 -17 -6 -21 14 -24 14 -28 -3 -3 -15 -6 -14 -15 8 -5 14 -23 34 -39 43
l-28 18 28 -26 c15 -15 27 -35 27 -46 0 -10 5 -22 11 -25 6 -4 8 -13 5 -21 -3
-7 -1 -16 4 -19 6 -4 10 -12 9 -18 0 -9 -2 -9 -6 1 -7 17 -23 15 -23 -3 0 -8
-4 -15 -10 -15 -5 0 -10 7 -10 15 0 8 -6 15 -13 15 -7 0 -24 25 -36 55 -12 30
-26 54 -29 54 -4 -1 -14 -1 -22 0 -13 1 -13 3 1 11 17 10 59 2 59 -11 0 -5 6
-9 12 -9 7 0 0 12 -15 26 -22 20 -31 23 -42 14 -19 -15 -73 24 -82 60 -3 14
-11 32 -18 40 -27 33 -39 100 -17 100 9 0 12 6 8 16 -5 14 -4 15 9 4 12 -10
16 -9 21 3 3 8 5 21 3 28 -1 8 -1 23 0 34 1 17 3 18 12 5 8 -11 12 -12 16 -2
2 6 20 12 38 12 19 0 40 6 47 13 7 8 20 16 28 20 9 3 4 6 -12 6 -15 1 -30 6
-34 12 -3 6 -14 9 -24 6 -10 -3 -32 3 -48 13 -25 16 -49 18 -153 16 -68 -1
-133 -7 -143 -13 -15 -8 -23 -7 -34 4 -18 18 -37 12 -37 -13 0 -11 8 -20 20
-22 11 -2 34 -11 52 -19 29 -13 31 -18 26 -46 -3 -18 -10 -33 -15 -35 -4 -2
-8 -9 -8 -17 0 -7 -7 -18 -15 -25 -8 -7 -13 -16 -10 -20 3 -5 1 -11 -5 -15 -6
-4 -8 -10 -6 -14 3 -4 -7 -21 -23 -38 -22 -25 -25 -33 -16 -47 7 -8 16 -12 20
-8 4 4 3 -3 -4 -15 -10 -19 -15 -21 -36 -11 -20 9 -24 16 -19 37 l5 26 -21
-28 c-22 -28 -80 -64 -80 -50 0 5 -5 1 -10 -7 -8 -12 -10 -11 -10 8 0 13 -6
22 -16 22 -8 0 -12 5 -9 10 9 15 -11 12 -24 -4 -13 -16 -26 -15 -59 3 -17 9
-27 10 -37 1 -10 -8 -15 -8 -20 1 -4 6 -1 15 6 20 8 5 9 9 4 9 -6 0 -22 -8
-35 -17 -23 -16 -24 -16 -11 0 7 9 11 30 9 47 -3 16 -1 30 4 30 5 0 6 4 3 10
-3 5 -16 10 -27 10 -12 0 -19 3 -16 6 3 3 -4 15 -16 28 -11 12 -34 38 -50 57
-28 33 -28 34 -8 37 14 2 19 8 15 18 -3 9 -13 12 -24 9 -11 -4 -19 -2 -19 3 0
6 5 12 11 14 18 6 -11 46 -39 53 -14 3 -34 0 -47 -9 -22 -15 -24 -14 -30 4 -4
11 -11 18 -16 14 -6 -3 -16 0 -24 6 -8 6 -19 9 -25 5 -6 -4 -11 -1 -9 6 4 30
-2 60 -10 55 -5 -4 -5 10 0 32 4 20 4 38 0 40 -5 2 -5 19 -1 38 8 36 4 71 -13
92 -5 7 -12 38 -16 70 -5 46 -10 57 -24 56 -9 -1 -17 2 -17 7 0 5 -7 9 -15 9
-8 0 -15 4 -15 9 0 5 7 14 15 21 8 7 15 17 15 22 0 6 -7 5 -15 -2 -12 -10 -15
-10 -15 3 0 11 -6 14 -15 11 -10 -4 -15 0 -13 12 0 11 0 28 -1 39 -2 19 -2 19
-16 1 -13 -17 -41 -14 -30 4 3 4 -7 16 -22 25 -18 12 -28 14 -31 7 -6 -19 -22
-14 -22 7 0 11 -5 23 -10 26 -6 4 -7 12 -1 22 6 11 4 21 -6 31 -10 10 -14 30
-11 59 3 43 -5 57 -16 27 -3 -9 -6 -24 -6 -35 0 -10 -4 -19 -10 -19 -5 0 -10
5 -10 11 0 5 -4 7 -10 4 -6 -4 -10 6 -10 22 l-1 28 -18 -33 -17 -33 2 63 c1
35 3 63 4 63 1 0 3 12 4 28 1 15 -2 27 -7 27 -5 0 -7 7 -4 15 4 8 2 17 -3 20
-6 4 -10 24 -10 47 0 23 -8 51 -19 67 -30 42 -36 78 -46 286 -4 71 -10 182
-14 245 -11 183 15 504 44 540 7 8 15 26 18 40 3 14 11 43 18 65 7 24 13 114
14 225 1 127 6 194 15 215 7 17 14 35 15 40 6 48 19 85 31 89 8 3 14 15 14 26
0 11 5 20 10 20 6 0 10 7 10 16 0 8 4 12 10 9 11 -7 75 87 100 145 21 50 35
74 62 102 14 15 24 28 21 28 -6 0 30 49 57 78 14 15 28 21 41 17 11 -4 19 -2
19 5 0 6 -6 8 -12 4 -8 -4 -10 -3 -5 2 5 5 14 9 20 9 7 0 12 6 12 14 0 8 8 17
18 20 10 4 19 11 20 16 1 5 7 10 12 10 6 1 30 7 55 14 62 18 115 22 145 11 19
-7 27 -6 31 3 5 14 57 19 112 11 18 -3 30 -9 27 -14 -8 -13 18 -18 38 -6 13 8
20 8 27 -4 5 -8 10 -10 10 -5 0 15 113 14 128 -2 18 -17 39 -17 49 1 6 11 18
12 53 6 25 -5 52 -4 62 1 9 5 31 9 48 9 18 0 45 9 61 21 16 11 34 17 39 14 6
-4 17 -2 24 4 7 6 30 13 52 16 21 2 44 13 51 22 25 37 34 42 61 38 15 -3 37
-7 49 -8z m-137 -26 c0 -12 -20 -25 -27 -18 -7 7 6 27 18 27 5 0 9 -4 9 -9z
m1104 -2875 c-6 -16 -8 -17 -16 -2 -11 19 0 42 13 29 6 -6 7 -18 3 -27z
m-2410 9 c-4 -8 -8 -15 -10 -15 -2 0 -4 7 -4 15 0 8 4 15 10 15 5 0 7 -7 4
-15z m-4 -120 c-7 -9 -15 -13 -19 -10 -3 3 1 10 9 15 21 14 24 12 10 -5z
m2270 -48 c0 -5 -4 -5 -10 -2 -5 3 -10 14 -10 23 0 15 2 15 10 2 5 -8 10 -19
10 -23z m0 -38 c0 -12 8 -23 20 -26 20 -5 28 -23 10 -23 -5 0 -10 -7 -10 -15
0 -9 -9 -35 -20 -57 -11 -23 -20 -50 -20 -60 0 -23 -16 -23 -24 -1 -4 10 -4
14 0 10 10 -10 45 73 37 87 -11 16 -11 106 -1 106 4 0 8 -9 8 -21z m-102 -54
c-3 -3 -9 2 -12 12 -6 14 -5 15 5 6 7 -7 10 -15 7 -18z m-1865 -290 c-3 -9 -8
-14 -10 -11 -3 3 -2 9 2 15 9 16 15 13 8 -4z m2 -45 c-3 -5 -11 -10 -16 -10
-6 0 -7 5 -4 10 3 6 11 10 16 10 6 0 7 -4 4 -10z m1535 -30 c0 -5 -2 -10 -4
-10 -3 0 -8 5 -11 10 -3 6 -1 10 4 10 6 0 11 -4 11 -10z m75 -38 c-3 -3 -11 0
-18 7 -9 10 -8 11 6 5 10 -3 15 -9 12 -12z m530 -3 c3 -3 -1 -6 -7 -7 -7 -1
-25 -4 -40 -8 -19 -4 -28 -2 -28 6 0 7 7 10 15 6 8 -3 15 -1 15 4 0 10 35 9
45 -1z m-5 -29 c-12 -8 -12 -10 -1 -10 8 0 12 -3 8 -6 -9 -9 -28 6 -22 17 4 5
12 9 18 9 7 0 6 -4 -3 -10z m-40 -4 c0 -2 -9 -6 -20 -9 -11 -3 -20 -1 -20 4 0
5 9 9 20 9 11 0 20 -2 20 -4z m-549 -23 c13 -16 12 -17 -3 -4 -17 13 -22 21
-14 21 2 0 10 -8 17 -17z m579 -3 c12 -8 9 -10 -13 -10 -16 0 -26 4 -22 10 8
12 16 12 35 0z m-585 -40 c3 -6 -1 -7 -9 -4 -18 7 -21 14 -7 14 6 0 13 -4 16
-10z m595 6 c0 -2 -9 -6 -20 -9 -11 -3 -18 -1 -14 4 5 9 34 13 34 5z m-1972
-48 c-2 -13 -10 -24 -19 -26 -13 -2 -15 3 -12 23 7 32 36 34 31 3z m672 -4 c0
-16 -16 -19 -25 -4 -8 13 4 32 16 25 5 -4 9 -13 9 -21z m-600 -12 c0 -5 -18
-18 -40 -31 -22 -12 -40 -20 -40 -17 0 11 43 45 52 40 4 -3 8 0 8 5 0 6 5 11
10 11 6 0 10 -4 10 -8z m395 -12 c3 -5 -1 -10 -10 -10 -9 0 -13 5 -10 10 3 6
8 10 10 10 2 0 7 -4 10 -10z m231 -43 c3 -10 3 -21 0 -24 -3 -3 1 -18 10 -34
13 -25 13 -29 0 -29 -8 0 -17 -8 -20 -17 -4 -15 -5 -15 -4 2 0 11 -1 34 -2 50
-1 26 -3 27 -10 10 -7 -17 -9 -16 -9 10 -1 20 -4 26 -10 17 -7 -11 -10 -10
-15 3 -9 23 -2 30 28 30 17 0 28 -7 32 -18z m-165 -30 c-6 -6 -11 -20 -12 -31
-1 -18 -2 -17 -8 4 -8 26 19 75 27 50 3 -7 -1 -17 -7 -23z m685 6 c-3 -4 2
-15 11 -26 17 -19 17 -20 -4 -8 -23 12 -36 28 -39 48 -2 10 3 10 18 2 11 -6
17 -13 14 -16z m-454 -22 c26 -23 27 -23 21 -2 -7 26 15 29 24 4 4 -10 20 -30
36 -46 22 -20 28 -33 23 -50 -3 -12 -6 -35 -6 -50 0 -26 -1 -27 -16 -12 -9 9
-23 14 -31 11 -7 -3 -16 1 -20 10 -8 21 6 32 18 14 9 -12 10 -12 5 3 -3 10 -6
24 -6 30 0 8 -3 7 -9 -2 -12 -19 -43 13 -59 64 -7 22 -16 47 -18 55 -3 9 -2
11 3 5 4 -5 20 -21 35 -34z m444 -37 c-14 -15 -26 -8 -26 17 0 16 3 17 19 7
14 -8 16 -14 7 -24z m-814 -26 c-24 -24 -30 -11 -11 24 8 15 14 17 22 9 8 -8
5 -17 -11 -33z m131 18 c8 5 7 2 -2 -9 -18 -23 -47 -22 -47 2 0 16 4 18 18 10
10 -6 24 -7 31 -3z m621 -21 c3 -8 1 -15 -4 -15 -6 0 -10 7 -10 15 0 8 2 15 4
15 2 0 6 -7 10 -15z m-789 -17 c6 -4 2 -8 -7 -8 -10 0 -18 7 -18 17 0 9 3 12
8 7 4 -5 12 -12 17 -16z m262 -20 c-3 -8 -6 -5 -6 6 -1 11 2 17 5 13 3 -3 4
-12 1 -19z m277 -24 c4 -15 4 -29 1 -32 -8 -8 -25 19 -25 41 0 26 17 20 24 -9z
m-616 -270 c23 -4 27 -14 5 -14 -11 0 -27 8 -34 17 -12 15 -12 16 1 8 8 -5 21
-10 28 -11z m-72 -13 c8 7 14 7 14 1 0 -22 132 -42 312 -47 100 -3 187 -10
192 -15 7 -7 3 -10 -10 -10 -11 0 -25 -5 -32 -12 -6 -6 -20 -13 -29 -14 -26
-4 -153 -50 -188 -68 -16 -9 -35 -16 -41 -16 -6 0 -23 -9 -38 -21 -15 -11 -32
-22 -39 -23 -6 -2 -21 -7 -31 -11 -13 -6 -22 -3 -30 7 -6 8 -17 13 -23 11 -7
-3 -13 0 -13 5 0 6 -3 19 -6 29 -5 15 -4 15 5 3 9 -13 11 -13 11 0 0 21 -11
35 -38 49 -12 7 -22 17 -21 24 4 22 -13 66 -27 71 -8 3 -14 12 -14 20 0 16 23
28 28 14 2 -5 10 -4 18 3z m194 -21 c0 -5 -2 -10 -4 -10 -3 0 -8 5 -11 10 -3
6 -1 10 4 10 6 0 11 -4 11 -10z m971 -97 c-8 -15 -10 -15 -11 -2 0 17 10 32
18 25 2 -3 -1 -13 -7 -23z m-103 -88 c-12 -14 -24 -23 -26 -20 -6 6 28 45 39
45 5 0 -1 -11 -13 -25z m482 -79 c0 -2 -8 -10 -17 -17 -16 -13 -17 -12 -4 4
13 16 21 21 21 13z m-68 -39 c-28 -30 -28 -46 0 -21 22 19 22 19 7 -3 -27 -40
-291 -314 -297 -308 -3 3 21 32 53 65 32 33 56 62 53 66 -4 3 -11 -4 -18 -15
-6 -12 -15 -21 -21 -21 -6 0 8 21 30 47 24 26 37 49 31 53 -5 3 16 31 48 60
l57 55 -49 -52 c-80 -84 -47 -70 39 17 44 44 82 80 84 80 2 0 -5 -10 -17 -23z
m-232 -210 c0 -1 -27 -29 -60 -62 -73 -73 -80 -65 -9 11 44 45 69 64 69 51z"/>
<path d="M3578 4833 c7 -3 16 -2 19 1 4 3 -2 6 -13 5 -11 0 -14 -3 -6 -6z"/>
<path d="M3458 4343 c7 -3 16 -2 19 1 4 3 -2 6 -13 5 -11 0 -14 -3 -6 -6z"/>
<path d="M2412 4265 c-40 -13 -50 -25 -24 -26 12 -1 28 -2 35 -3 15 -2 57 23
57 35 0 10 -29 8 -68 -6z"/>
<path d="M2340 4240 c0 -5 5 -10 10 -10 6 0 10 5 10 10 0 6 -4 10 -10 10 -5 0
-10 -4 -10 -10z"/>
<path d="M2288 4223 c7 -3 16 -2 19 1 4 3 -2 6 -13 5 -11 0 -14 -3 -6 -6z"/>
<path d="M2244 4205 c-10 -8 -14 -15 -8 -15 6 0 17 7 24 15 16 19 9 19 -16 0z"/>
<path d="M2644 4205 c-18 -14 -15 -15 32 -13 28 1 57 -3 65 -8 8 -5 86 -9 174
-10 180 0 266 -10 278 -30 11 -19 24 -17 29 4 4 12 23 22 61 31 71 17 171 4
256 -35 34 -15 64 -24 67 -21 3 3 -25 20 -62 38 -79 36 -191 54 -253 40 -23
-5 -92 -7 -153 -4 -62 3 -169 6 -238 7 -69 1 -150 5 -181 9 -42 5 -60 4 -75
-8z"/>
<path d="M3725 4191 c11 -5 43 -10 72 -10 28 -1 63 -5 77 -11 14 -5 26 -6 26
-1 0 14 -26 20 -113 26 -55 4 -75 2 -62 -4z"/>
<path d="M2410 4148 c-25 -5 -53 -11 -63 -12 -10 -1 -23 -9 -27 -17 -5 -8 -14
-14 -20 -14 -5 0 -9 -4 -7 -10 1 -5 10 -9 21 -7 24 3 46 -15 40 -33 -3 -8 10
-30 30 -50 20 -20 36 -40 36 -46 0 -6 7 -3 16 5 8 9 28 16 43 16 14 0 52 9 84
20 31 11 63 20 71 20 25 0 7 27 -20 33 -18 3 -34 -3 -52 -20 -14 -13 -32 -21
-39 -19 -7 3 -25 1 -39 -4 -21 -8 -25 -8 -21 4 7 17 -28 51 -43 41 -6 -4 -18
-1 -26 6 -12 10 -12 14 -2 20 8 5 3 8 -14 6 -15 -1 -27 3 -26 8 0 6 8 10 17 9
9 -1 31 -2 49 -2 25 -2 32 -6 32 -22 0 -11 5 -20 10 -20 6 0 10 5 10 11 0 6 6
9 13 6 8 -3 14 1 14 9 0 8 -6 14 -14 14 -7 0 -13 5 -13 10 0 6 7 10 15 10 8 0
19 9 25 20 10 18 8 20 -22 19 -18 -1 -53 -6 -78 -11z"/>
<path d="M2520 4110 c20 -13 33 -13 25 0 -3 6 -14 10 -23 10 -15 0 -15 -2 -2
-10z"/>
<path d="M2894 4061 c-3 -3 -27 -7 -52 -8 -26 -1 -72 -6 -102 -10 -35 -5 65
-9 285 -11 187 -1 366 -6 398 -11 57 -8 77 1 35 15 -37 13 -44 13 -268 20
-118 3 -232 7 -253 8 -20 2 -40 0 -43 -3z"/>
<path d="M2660 4030 c0 -5 5 -10 10 -10 6 0 10 5 10 10 0 6 -4 10 -10 10 -5 0
-10 -4 -10 -10z"/>
<path d="M3730 4020 c36 -11 50 -11 50 0 0 6 -17 10 -37 9 -34 -1 -35 -2 -13
-9z"/>
<path d="M3790 4020 c0 -13 11 -13 30 0 12 8 11 10 -7 10 -13 0 -23 -4 -23
-10z"/>
<path d="M2597 3806 c-3 -8 -2 -18 3 -21 13 -8 24 15 12 27 -6 6 -11 4 -15 -6z"/>
<path d="M3170 3763 c0 -34 6 -58 18 -74 19 -22 19 -22 14 37 -2 32 -10 66
-18 74 -12 12 -14 7 -14 -37z"/>
<path d="M3487 3648 c2 -5 -6 -7 -18 -5 -12 1 -24 -4 -27 -12 -3 -10 2 -12 19
-8 13 3 35 8 49 11 18 5 16 2 -7 -9 -18 -8 -33 -20 -33 -26 0 -6 -6 -9 -13 -6
-8 3 -20 1 -28 -5 -11 -8 -10 -9 4 -4 9 3 17 2 17 -2 -1 -17 -18 -33 -38 -35
-16 -1 -20 -6 -16 -19 3 -11 -5 -32 -21 -52 -15 -19 -26 -36 -25 -38 1 -2 -2
-11 -5 -21 -4 -9 -2 -37 4 -62 6 -24 10 -48 9 -52 0 -5 2 -17 6 -28 5 -11 10
-26 12 -33 2 -9 10 -6 26 10 13 13 23 17 26 10 2 -6 10 -8 18 -5 8 3 17 -4 23
-20 5 -14 16 -27 23 -30 10 -4 11 -7 1 -18 -19 -20 -16 -27 19 -45 27 -14 29
-18 15 -26 -9 -5 -17 -15 -17 -23 0 -17 30 -55 43 -55 4 0 20 -9 35 -19 39
-28 148 -46 198 -34 l39 10 -48 13 c-30 8 -52 20 -59 34 -8 17 -8 19 2 9 9 -8
19 -9 31 -3 11 6 28 6 46 0 19 -7 43 -7 68 -1 22 5 32 10 23 11 -10 1 -22 4
-28 5 -5 1 -14 3 -19 4 -5 0 -11 8 -15 16 -4 12 1 14 25 10 21 -4 28 -2 24 6
-5 8 -2 8 11 1 11 -5 26 -7 34 -5 12 4 13 3 1 -5 -7 -5 -10 -15 -6 -21 5 -9
10 -9 20 -1 8 7 19 9 25 5 5 -3 10 -2 10 4 0 5 -8 15 -17 20 -27 16 2 14 60
-4 31 -9 55 -11 66 -6 9 5 35 6 59 1 23 -4 53 -5 67 -2 28 5 54 40 38 51 -6 3
-16 17 -23 30 -45 85 -101 120 -295 185 -146 49 -236 93 -228 112 3 8 17 14
32 14 14 0 33 4 41 9 8 6 18 7 23 4 5 -3 95 -7 200 -8 165 -2 189 -1 172 11
-18 14 -18 14 1 14 11 0 26 -6 33 -12 11 -11 12 -8 7 17 -8 33 -50 82 -78 91
-14 4 -16 9 -8 19 8 10 4 14 -15 19 -31 8 -145 -12 -145 -25 0 -12 -13 -11
-47 3 -40 16 -132 17 -126 0 4 -9 -13 -6 -52 9 -43 16 -82 22 -155 23 -54 0
-96 -2 -93 -6z m48 -38 c3 -5 -1 -10 -10 -10 -9 0 -13 5 -10 10 3 6 8 10 10
10 2 0 7 -4 10 -10z m-55 -50 c-20 -13 -33 -13 -25 0 3 6 14 10 23 10 15 0 15
-2 2 -10z m463 -259 c-3 -13 -11 -17 -28 -13 -18 3 -21 7 -13 16 19 20 46 17
41 -3z m-247 -115 c-3 -24 -46 -22 -46 2 0 30 21 44 35 25 7 -9 12 -22 11 -27z
m202 23 c-2 -6 -8 -10 -13 -10 -5 0 -11 4 -13 10 -2 6 4 11 13 11 9 0 15 -5
13 -11z m134 -24 c4 -5 8 -15 8 -20 0 -12 -58 -40 -66 -32 -3 3 0 23 7 46 10
35 14 39 28 28 9 -6 19 -16 23 -22z m-215 -111 c-3 -3 -12 -4 -19 -1 -8 3 -5
6 6 6 11 1 17 -2 13 -5z"/>
<path d="M2755 3638 c-22 -5 -51 -7 -64 -5 -14 3 -36 1 -49 -4 -33 -13 -268
-13 -357 -1 -39 5 -86 7 -105 3 -45 -8 -107 -47 -115 -72 -4 -10 -13 -19 -20
-19 -8 0 -22 -11 -31 -25 -16 -24 -16 -26 6 -45 25 -22 60 -26 76 -10 6 6 21
6 40 1 16 -5 57 -7 89 -4 88 6 207 4 230 -4 26 -9 32 -10 88 -11 45 -2 70 -22
26 -22 -11 0 -30 -5 -41 -11 -11 -6 -78 -26 -148 -45 -219 -58 -300 -99 -364
-188 -10 -14 -28 -26 -40 -27 -20 0 -20 -1 2 -9 12 -5 22 -16 22 -24 0 -16 27
-29 42 -20 5 4 35 8 66 9 53 2 122 -18 195 -56 10 -5 60 -10 112 -10 52 0 95
-4 95 -8 0 -4 -16 -6 -35 -5 -22 2 -34 -1 -32 -8 1 -7 -4 -13 -10 -14 -7 -1
-17 -2 -23 -3 -5 0 -7 -8 -3 -16 3 -9 8 -14 11 -11 2 3 14 0 25 -6 21 -11 38
-14 86 -17 l24 -1 -23 -25 -23 -25 37 -15 c20 -9 41 -13 45 -10 5 2 14 -2 21
-10 18 -21 63 -19 93 5 14 11 31 20 37 20 29 0 175 124 165 140 -3 5 -2 10 2
12 14 6 43 69 43 93 0 13 5 27 10 30 6 4 7 13 1 23 -4 9 -11 44 -15 77 -10 96
-28 175 -37 169 -5 -3 -9 2 -9 11 0 8 -6 18 -13 21 -19 7 -17 33 2 39 33 10
53 91 31 125 -8 12 -13 13 -30 3 -26 -17 -30 -16 -30 2 0 17 -41 19 -105 3z
m-458 -460 l11 -40 -26 7 c-36 9 -52 23 -52 47 0 17 39 42 50 31 2 -2 10 -22
17 -45z m211 41 c-2 -6 -8 -10 -13 -10 -5 0 -11 4 -13 10 -2 6 4 11 13 11 9 0
15 -5 13 -11z m126 -8 c18 -20 15 -24 -28 -40 -25 -10 -26 -9 -26 24 0 27 4
35 18 35 11 0 27 -9 36 -19z"/>
<path d="M3390 3604 c0 -8 5 -12 10 -9 6 4 8 11 5 16 -9 14 -15 11 -15 -7z"/>
<path d="M2780 2649 c0 -5 -16 -17 -35 -25 -39 -16 -189 -159 -198 -189 -8
-26 53 -153 71 -147 6 2 12 -3 12 -11 0 -8 11 -26 25 -41 14 -15 22 -32 19
-38 -5 -7 -1 -9 9 -5 13 5 17 0 17 -22 0 -23 -7 -32 -34 -45 -19 -9 -42 -16
-53 -16 -10 0 -34 -10 -53 -22 -19 -12 -37 -23 -40 -24 -3 -1 -15 -5 -28 -9
-14 -5 -21 -13 -18 -22 3 -8 -2 -17 -12 -20 -9 -4 -23 -14 -30 -24 -6 -10 -26
-20 -42 -24 -32 -7 -43 -42 -15 -50 50 -16 47 -13 30 -37 -12 -18 -25 -23 -57
-23 -36 0 -41 -3 -43 -23 -1 -12 -14 -35 -29 -51 l-28 -29 35 12 c19 6 42 18
51 25 9 8 19 11 22 8 3 -3 -8 -15 -25 -28 -32 -23 -41 -49 -18 -49 7 0 19 6
27 13 8 6 6 2 -4 -10 -11 -13 -14 -23 -8 -23 6 0 13 4 17 10 3 5 22 14 41 19
34 9 75 3 116 -20 10 -5 46 -9 81 -10 61 -1 95 -13 150 -52 48 -34 178 -59
192 -37 3 6 2 10 -3 10 -5 0 -12 9 -15 20 -3 13 0 20 9 20 8 0 11 6 8 15 -7
17 21 21 31 5 3 -5 2 -10 -3 -10 -12 0 -3 -48 11 -57 6 -4 8 0 4 10 -3 8 0 20
6 26 15 11 116 20 122 10 3 -3 17 -4 32 -2 16 3 47 6 70 7 23 1 45 5 49 9 3 3
14 -1 22 -10 11 -10 17 -12 20 -4 5 15 28 14 44 -2 7 -7 17 -15 23 -18 5 -2 9
-7 8 -11 -4 -12 5 -10 92 18 83 26 124 31 163 19 12 -4 22 -3 22 2 0 17 95 -2
127 -25 36 -26 53 -28 53 -7 0 8 -6 13 -12 11 -7 -1 -10 -1 -5 1 4 3 4 9 1 15
-4 7 2 7 17 3 22 -7 23 -7 9 11 -8 10 -21 23 -27 27 -20 13 -15 24 13 31 24 6
25 9 12 24 -28 32 -32 48 -8 27 l23 -20 -14 23 c-8 12 -17 22 -21 22 -5 0 -8
5 -8 11 0 5 5 7 11 3 8 -5 8 -1 0 14 -8 15 -8 23 1 28 7 5 8 2 3 -7 -6 -11 -5
-11 5 -2 7 6 9 16 6 21 -10 16 -96 62 -96 51 0 -5 11 -14 24 -19 28 -10 40
-26 27 -34 -5 -3 -28 12 -51 34 -23 22 -51 40 -62 40 -12 0 -16 4 -12 12 4 7
3 8 -4 4 -6 -4 -31 5 -54 20 -24 15 -57 28 -75 29 -34 1 -48 9 -48 28 0 7 -17
21 -38 32 -31 16 -39 18 -46 6 -6 -9 -11 -10 -15 -2 -4 6 -3 11 2 11 6 0 5 18
-3 44 l-13 44 39 18 c31 15 39 24 39 46 0 17 8 31 20 38 37 20 19 50 -31 50
-25 0 -111 -43 -128 -64 -17 -20 -10 -20 34 -2 l35 15 -16 -24 c-24 -37 -82
-77 -102 -70 -12 3 -30 -4 -47 -19 -31 -27 -115 -44 -154 -31 -12 4 -36 23
-54 43 -18 20 -57 62 -87 95 -82 89 -169 121 -207 77 -16 -18 -18 -18 -35 -3
-26 24 -23 82 6 122 40 53 61 65 129 70 13 1 17 10 17 45 0 24 -3 51 -6 60 -7
18 -34 22 -34 5z m645 -369 c3 -5 -3 -10 -15 -10 -12 0 -18 5 -15 10 3 6 10
10 15 10 5 0 12 -4 15 -10z m-345 -279 c0 -27 -7 -65 -15 -84 -8 -20 -15 -39
-15 -42 0 -9 44 -5 60 5 13 8 12 10 -3 10 -12 0 -17 6 -15 17 5 25 21 26 48 1
21 -20 36 -23 102 -24 50 0 76 3 75 10 -1 6 5 10 14 8 9 -1 19 4 23 13 4 13
10 12 40 -6 19 -11 37 -27 40 -36 5 -12 9 -13 20 -4 11 9 16 9 21 0 6 -8 10
-8 15 2 7 10 11 10 24 0 18 -15 22 -1 4 17 -16 16 -2 28 15 14 8 -7 17 -9 20
-5 4 3 7 1 7 -5 0 -19 31 -42 55 -42 15 0 31 -10 41 -25 9 -14 20 -23 24 -20
4 3 14 -3 21 -12 10 -12 10 -14 2 -9 -8 4 -13 2 -13 -4 0 -8 -15 -10 -50 -5
-53 7 -125 -9 -114 -27 4 -6 -1 -6 -14 1 -11 6 -33 11 -47 11 -14 0 -35 4 -45
10 -28 15 -93 20 -107 8 -10 -8 -13 -5 -14 13 0 22 -1 23 -8 4 -5 -11 -7 -23
-4 -27 5 -10 -30 -27 -71 -34 -38 -6 -79 3 -72 15 3 3 -10 6 -27 6 -18 0 -36
2 -42 4 -5 3 -17 6 -25 6 -8 0 -19 9 -25 20 -7 15 -20 21 -46 21 -36 0 -36 -1
-27 -29 6 -15 7 -31 3 -35 -4 -4 -10 -1 -12 5 -4 10 -10 10 -25 2 -16 -8 -19
-8 -13 1 5 9 1 10 -15 5 -15 -5 -20 -4 -16 4 4 6 2 11 -5 11 -6 0 -9 8 -6 20
3 11 1 23 -5 26 -5 3 -58 6 -118 5 -63 0 -112 4 -115 9 -10 15 37 65 60 64 11
0 25 3 30 7 6 4 26 7 45 7 19 0 49 0 65 0 17 1 62 -1 100 -4 86 -7 107 9 109
81 0 25 5 45 9 45 5 0 6 4 3 8 -2 4 4 9 15 9 16 2 19 -5 19 -46z m-465 -131
c-3 -5 -10 -10 -16 -10 -5 0 -9 5 -9 10 0 6 7 10 16 10 8 0 12 -4 9 -10z
m-170 -45 c-21 -17 -37 -15 -43 3 -2 8 8 12 30 12 31 -1 32 -1 13 -15z m1295
0 c11 -13 10 -14 -4 -9 -9 3 -16 10 -16 15 0 13 6 11 20 -6z m-1400 1 c0 -2
-8 -10 -17 -17 -16 -13 -17 -12 -4 4 13 16 21 21 21 13z m1400 -61 c7 -9 8
-15 2 -15 -5 0 -12 7 -16 15 -3 8 -4 15 -2 15 2 0 9 -7 16 -15z m35 -85 c10
-11 16 -20 13 -20 -3 0 -13 9 -23 20 -10 11 -16 20 -13 20 3 0 13 -9 23 -20z"/>
<path d="M2383 1893 c-7 -3 -13 -11 -13 -20 0 -12 2 -12 16 2 18 17 16 25 -3
18z"/>
<path d="M3970 1644 c0 -8 5 -12 10 -9 6 4 8 11 5 16 -9 14 -15 11 -15 -7z"/>
<path d="M3081 1616 c-16 -19 -22 -54 -10 -61 5 -4 9 -2 9 4 0 6 7 8 15 5 9
-4 15 0 16 10 1 9 2 24 3 33 1 22 -18 27 -33 9z"/>
<path d="M3780 1572 c0 -7 5 -12 10 -12 6 0 10 -7 10 -17 0 -9 3 -14 6 -10 4
3 16 -8 28 -25 11 -17 28 -33 36 -36 8 -2 5 3 -7 13 -13 9 -23 22 -23 29 0 7
-13 25 -30 41 -16 16 -30 23 -30 17z"/>
<path d="M3220 1001 c0 -6 5 -13 10 -16 6 -3 10 -1 10 5 0 6 5 8 12 4 7 -4 8
-3 4 4 -9 14 -36 16 -36 3z"/>
<path d="M4026 282 l-19 -27 26 24 c28 26 32 31 20 31 -5 0 -17 -13 -27 -28z"/>
<path d="M3910 159 c0 -5 5 -7 10 -4 6 3 10 8 10 11 0 2 -4 4 -10 4 -5 0 -10
-5 -10 -11z"/>
<path d="M3391 5699 c-13 -11 -22 -22 -19 -24 2 -3 15 6 28 20 28 30 24 32 -9
4z"/>
<path d="M3930 5350 c0 -5 5 -10 10 -10 6 0 10 5 10 10 0 6 -4 10 -10 10 -5 0
-10 -4 -10 -10z"/>
<path d="M4241 4795 c1 -19 18 -51 18 -35 0 8 -4 22 -9 30 -5 8 -9 11 -9 5z"/>
<path d="M1541 3128 c1 -133 16 -215 34 -196 3 2 10 42 16 88 11 77 10 85 -10
120 -11 21 -21 47 -21 58 0 12 -5 24 -10 27 -7 5 -10 -27 -9 -97z"/>
<path d="M1681 1351 c-8 -5 -11 -16 -8 -25 6 -14 2 -17 -18 -16 -14 1 -38 -34
-41 -58 -1 -15 -8 -28 -13 -30 -6 -2 -8 -9 -5 -15 5 -8 2 -8 -7 1 -10 9 -10
15 -1 24 7 7 12 21 12 32 0 19 -1 18 -17 -4 -9 -14 -18 -27 -20 -30 -2 -2 -19
4 -39 15 -27 15 -37 16 -47 6 -9 -10 -8 -11 8 -5 11 4 17 3 12 -2 -5 -5 7 -14
25 -20 33 -11 40 -25 17 -33 -7 -2 -9 1 -4 9 5 9 2 10 -15 5 -17 -5 -21 -4
-15 5 6 9 4 11 -4 6 -7 -5 -10 -11 -6 -14 3 -3 -16 -29 -42 -56 l-48 -51 45
43 c43 39 69 55 55 32 -3 -5 -1 -10 6 -10 7 0 -2 -16 -21 -35 -39 -40 -30 -48
11 -9 27 26 27 26 34 5 3 -12 11 -19 16 -16 5 3 6 -2 2 -11 -4 -12 -3 -15 5
-10 27 17 8 -9 -46 -62 -32 -31 -42 -42 -22 -24 51 46 61 40 15 -10 -22 -23
-29 -34 -15 -23 56 44 80 69 70 75 -7 4 -3 13 8 23 17 15 18 15 18 -5 0 -12
-20 -40 -48 -66 -27 -25 -46 -47 -43 -50 3 -3 24 12 48 34 l42 39 -40 -43
c-23 -24 -40 -53 -40 -67 -1 -13 3 -21 9 -18 5 4 7 -1 2 -12 -6 -15 -4 -16 10
-4 13 11 15 11 14 -2 -4 -27 0 -48 13 -61 14 -15 19 -33 19 -65 0 -13 5 -20
11 -16 6 4 8 0 4 -10 -3 -10 -2 -17 4 -17 6 0 5 -8 -2 -21 -6 -13 -7 -19 -1
-15 11 6 14 -6 33 -116 13 -77 53 -211 61 -203 3 3 3 -7 1 -22 -4 -23 -2 -25
7 -13 9 12 10 9 5 -15 -6 -29 -6 -29 10 -10 16 20 16 20 10 -2 -8 -29 5 -94
16 -87 6 3 7 -6 3 -22 -5 -21 -4 -25 6 -19 8 5 11 4 6 -3 -7 -12 13 -62 26
-62 8 0 13 37 10 73 -1 10 3 15 8 12 6 -3 10 -14 11 -23 0 -9 3 -12 5 -5 3 6
-8 30 -25 53 -16 22 -34 62 -40 88 -6 26 -15 64 -20 84 -5 22 -5 36 0 32 11
-7 11 -9 -5 54 -8 28 -10 50 -5 46 5 -3 9 3 9 13 0 15 2 16 10 3 13 -19 13 -8
0 25 -7 19 -7 24 2 19 8 -5 9 -2 4 12 -9 22 -9 23 -7 49 1 17 3 18 11 5 11
-16 13 -9 12 35 0 11 4 23 9 26 6 3 -7 43 -28 90 l-38 84 0 248 c0 136 0 247
0 247 0 0 -6 -4 -14 -9z m-101 -165 c0 -2 -7 -7 -16 -10 -8 -3 -12 -2 -9 4 6
10 25 14 25 6z"/>
<path d="M1525 1260 c3 -5 10 -10 16 -10 5 0 9 5 9 10 0 6 -7 10 -16 10 -8 0
-12 -4 -9 -10z"/>
<path d="M1409 1163 l-24 -28 28 24 c15 14 27 26 27 28 0 8 -8 1 -31 -24z"/>
<path d="M1429 1153 l-34 -38 38 34 c20 19 37 36 37 38 0 8 -8 0 -41 -34z"/>
<path d="M1459 1123 c-19 -21 -25 -31 -14 -23 29 21 58 51 53 56 -2 2 -20 -13
-39 -33z"/>
<path d="M1483 1083 c-22 -21 -32 -32 -23 -25 27 20 35 14 14 -10 -19 -23 -19
-23 2 -5 32 26 40 20 13 -10 -20 -22 -17 -21 18 7 24 18 41 35 38 38 -2 3 -13
-1 -22 -9 -15 -11 -15 -10 1 9 12 13 14 22 7 22 -7 0 -9 5 -6 10 12 19 -3 10
-42 -27z m37 13 c0 -2 -8 -10 -17 -17 -16 -13 -17 -12 -4 4 13 16 21 21 21 13z"/>
<path d="M4585 1109 c-4 -6 -4 -13 -1 -16 3 -4 6 -2 6 4 0 6 9 9 20 6 11 -3
20 0 20 6 0 14 -37 14 -45 0z"/>
<path d="M4550 1045 c0 -5 5 -17 10 -25 5 -8 10 -10 10 -5 0 6 -5 17 -10 25
-5 8 -10 11 -10 5z"/>
<path d="M915 1019 c-4 -6 -5 -12 -2 -15 2 -3 7 2 10 11 7 17 1 20 -8 4z"/>
<path d="M1881 934 c0 -11 3 -14 6 -6 3 7 2 16 -1 19 -3 4 -6 -2 -5 -13z"/>
<path d="M5238 893 c7 -3 16 -2 19 1 4 3 -2 6 -13 5 -11 0 -14 -3 -6 -6z"/>
<path d="M5000 880 c0 -5 5 -10 11 -10 5 0 7 5 4 10 -3 6 -8 10 -11 10 -2 0
-4 -4 -4 -10z"/>
<path d="M5054 879 c-3 -5 6 -9 20 -9 31 0 34 6 6 13 -11 3 -23 1 -26 -4z"/>
<path d="M5140 878 c0 -4 14 -8 30 -8 17 0 30 4 30 9 0 5 -13 9 -30 9 -16 -1
-30 -5 -30 -10z"/>
<path d="M1887 866 c-30 -11 -46 -48 -29 -69 5 -6 17 -34 25 -62 8 -27 22 -63
30 -80 8 -16 20 -70 27 -120 7 -49 19 -113 27 -142 13 -44 14 -65 4 -129 -6
-42 -9 -79 -7 -81 3 -3 7 17 11 44 4 26 10 59 15 73 l8 25 2 -25 c1 -23 2 -23
10 -5 7 17 9 16 10 -10 1 -26 3 -27 10 -10 8 18 9 18 9 -5 1 -20 3 -22 11 -10
7 12 10 8 11 -15 0 -26 2 -27 9 -10 l9 20 0 -20 c2 -30 21 3 21 35 0 20 -2 22
-10 10 -8 -13 -10 -13 -10 2 0 32 19 29 29 -4 l9 -33 1 38 c1 23 -4 37 -12 37
-14 0 -34 41 -43 90 -4 26 -3 31 5 20 6 -8 11 -25 11 -37 0 -12 5 -25 10 -28
16 -10 12 61 -5 75 -9 7 -13 15 -10 18 3 3 -1 12 -9 21 -8 9 -16 23 -18 31 -2
8 -6 17 -9 20 -4 3 -9 28 -10 55 -2 28 -10 56 -17 63 -7 8 -10 18 -6 23 6 11
-41 71 -49 62 -3 -3 -6 3 -7 13 -2 56 -7 82 -20 105 -13 22 -18 24 -43 15z"/>
<path d="M5032 830 c0 -14 2 -19 5 -12 2 6 2 18 0 25 -3 6 -5 1 -5 -13z"/>
<path d="M5082 825 c0 -16 2 -22 5 -12 2 9 2 23 0 30 -3 6 -5 -1 -5 -18z"/>
<path d="M5012 810 c0 -14 2 -19 5 -12 2 6 2 18 0 25 -3 6 -5 1 -5 -13z"/>
<path d="M5042 780 c0 -14 2 -19 5 -12 2 6 2 18 0 25 -3 6 -5 1 -5 -13z"/>
<path d="M1541 757 c-13 -21 -12 -21 5 -5 10 10 16 20 13 22 -3 3 -11 -5 -18
-17z"/>
<path d="M4174 748 l-19 -23 23 19 c21 18 27 26 19 26 -2 0 -12 -10 -23 -22z"/>
<path d="M4160 710 c-73 -67 -102 -80 -49 -22 l34 37 -37 -34 c-21 -19 -35
-37 -33 -42 3 -4 -23 -33 -58 -64 -34 -32 -66 -65 -71 -74 -6 -9 37 27 95 80
57 53 124 115 149 138 25 22 43 40 40 40 -3 0 -34 -26 -70 -59z"/>
<path d="M4492 750 c0 -14 2 -19 5 -12 2 6 2 18 0 25 -3 6 -5 1 -5 -13z"/>
<path d="M5021 744 c0 -11 3 -14 6 -6 3 7 2 16 -1 19 -3 4 -6 -2 -5 -13z"/>
<path d="M5260 731 c0 -6 4 -13 10 -16 6 -3 7 1 4 9 -7 18 -14 21 -14 7z"/>
<path d="M4054 668 l-19 -23 23 19 c21 18 27 26 19 26 -2 0 -12 -10 -23 -22z"/>
<path d="M1772 655 c6 -14 13 -24 14 -22 6 6 -9 47 -17 47 -5 0 -3 -11 3 -25z"/>
<path d="M5301 654 c0 -11 3 -14 6 -6 3 7 2 16 -1 19 -3 4 -6 -2 -5 -13z"/>
<path d="M4014 608 l-29 -33 33 29 c17 17 32 31 32 33 0 8 -8 1 -36 -29z"/>
<path d="M4522 605 c0 -16 2 -22 5 -12 2 9 2 23 0 30 -3 6 -5 -1 -5 -18z"/>
<path d="M4471 604 c0 -11 3 -14 6 -6 3 7 2 16 -1 19 -3 4 -6 -2 -5 -13z"/>
<path d="M5241 594 c0 -11 3 -14 6 -6 3 7 2 16 -1 19 -3 4 -6 -2 -5 -13z"/>
<path d="M2055 581 c-6 -11 9 -23 19 -14 9 9 7 23 -3 23 -6 0 -12 -4 -16 -9z"/>
<path d="M4403 540 c0 -25 2 -35 4 -22 2 12 2 32 0 45 -2 12 -4 2 -4 -23z"/>
<path d="M5171 564 c0 -11 3 -14 6 -6 3 7 2 16 -1 19 -3 4 -6 -2 -5 -13z"/>
<path d="M4483 525 c0 -27 2 -38 4 -22 2 15 2 37 0 50 -2 12 -4 0 -4 -28z"/>
<path d="M5202 550 c0 -14 2 -19 5 -12 2 6 2 18 0 25 -3 6 -5 1 -5 -13z"/>
<path d="M5321 534 c0 -11 3 -14 6 -6 3 7 2 16 -1 19 -3 4 -6 -2 -5 -13z"/>
<path d="M4382 520 c0 -14 2 -19 5 -12 2 6 2 18 0 25 -3 6 -5 1 -5 -13z"/>
<path d="M4921 524 c0 -11 3 -14 6 -6 3 7 2 16 -1 19 -3 4 -6 -2 -5 -13z"/>
<path d="M5182 515 c0 -16 2 -22 5 -12 2 9 2 23 0 30 -3 6 -5 -1 -5 -18z"/>
<path d="M4462 495 c0 -16 2 -22 5 -12 2 9 2 23 0 30 -3 6 -5 -1 -5 -18z"/>
<path d="M5231 504 c0 -11 3 -14 6 -6 3 7 2 16 -1 19 -3 4 -6 -2 -5 -13z"/>
<path d="M5162 490 c0 -14 4 -36 8 -50 l8 -25 0 25 c0 14 -4 36 -8 50 l-8 25
0 -25z"/>
<path d="M1741 493 c-1 -6 -4 -20 -7 -30 -5 -17 -5 -17 6 0 6 10 9 23 6 30 -3
9 -5 9 -5 0z"/>
<path d="M5211 474 c0 -11 3 -14 6 -6 3 7 2 16 -1 19 -3 4 -6 -2 -5 -13z"/>
<path d="M5141 464 c0 -11 3 -14 6 -6 3 7 2 16 -1 19 -3 4 -6 -2 -5 -13z"/>
<path d="M5191 464 c0 -11 3 -14 6 -6 3 7 2 16 -1 19 -3 4 -6 -2 -5 -13z"/>
<path d="M5371 444 c0 -11 3 -14 6 -6 3 7 2 16 -1 19 -3 4 -6 -2 -5 -13z"/>
<path d="M4312 430 c0 -14 2 -19 5 -12 2 6 2 18 0 25 -3 6 -5 1 -5 -13z"/>
<path d="M4462 420 c0 -19 2 -27 5 -17 2 9 2 25 0 35 -3 9 -5 1 -5 -18z"/>
<path d="M5151 424 c0 -11 3 -14 6 -6 3 7 2 16 -1 19 -3 4 -6 -2 -5 -13z"/>
<path d="M5221 424 c0 -11 3 -14 6 -6 3 7 2 16 -1 19 -3 4 -6 -2 -5 -13z"/>
<path d="M5201 404 c0 -11 3 -14 6 -6 3 7 2 16 -1 19 -3 4 -6 -2 -5 -13z"/>
<path d="M5182 395 c0 -11 4 -33 8 -50 7 -27 8 -27 8 -5 0 14 -4 36 -8 50 -6
20 -8 21 -8 5z"/>
<path d="M5281 390 c0 -8 6 -28 14 -45 17 -39 18 -21 0 25 -7 19 -14 28 -14
20z"/>
<path d="M1750 379 c0 -5 -4 -7 -10 -4 -12 8 -13 9 4 -45 l14 -45 -2 52 c0 29
-2 53 -3 53 -2 0 -3 -5 -3 -11z"/>
<path d="M3606 383 c-3 -4 -6 -19 -6 -34 0 -15 -6 -34 -13 -41 -44 -47 -93
-115 -90 -125 4 -12 -56 -63 -75 -63 -7 0 -12 -4 -12 -10 0 -5 -9 -19 -20 -30
-11 -11 -20 -17 -20 -14 0 4 -10 -6 -22 -22 -12 -16 -27 -32 -33 -37 -5 -4 2
-6 17 -4 16 2 34 12 42 22 15 19 15 19 9 -2 -8 -34 5 -28 21 10 8 17 15 26 15
19 1 -7 -4 -22 -9 -33 -10 -17 -7 -19 27 -19 37 0 39 2 63 60 22 51 32 63 73
84 30 16 47 21 47 13 1 -7 9 -2 19 11 11 12 23 22 28 22 5 0 14 21 21 46 17
62 -6 128 -48 143 -16 5 -31 7 -34 4z m-153 -318 c-3 -9 -8 -14 -10 -11 -3 3
-2 9 2 15 9 16 15 13 8 -4z"/>
<path d="M5360 385 c0 -5 5 -17 10 -25 5 -8 10 -10 10 -5 0 6 -5 17 -10 25 -5
8 -10 11 -10 5z"/>
<path d="M5390 375 c0 -5 5 -17 10 -25 5 -8 10 -10 10 -5 0 6 -5 17 -10 25 -5
8 -10 11 -10 5z"/>
<path d="M5140 344 c0 -10 5 -26 10 -34 8 -11 9 -7 4 15 -8 37 -14 45 -14 19z"/>
<path d="M5346 347 c3 -10 9 -15 12 -12 3 3 0 11 -7 18 -10 9 -11 8 -5 -6z"/>
<path d="M5171 324 c0 -11 3 -14 6 -6 3 7 2 16 -1 19 -3 4 -6 -2 -5 -13z"/>
<path d="M5270 335 c0 -5 5 -17 10 -25 5 -8 10 -10 10 -5 0 6 -5 17 -10 25 -5
8 -10 11 -10 5z"/>
<path d="M1790 325 c0 -5 5 -17 10 -25 5 -8 10 -10 10 -5 0 6 -5 17 -10 25 -5
8 -10 11 -10 5z"/>
<path d="M3830 213 l-115 -117 100 91 c115 105 152 143 139 143 -5 0 -61 -53
-124 -117z"/>
<path d="M5226 310 c3 -14 11 -32 16 -40 6 -10 7 -7 2 10 -3 14 -11 32 -16 40
-6 10 -7 7 -2 -10z"/>
<path d="M5251 320 c0 -8 4 -22 9 -30 12 -18 12 -2 0 25 -6 13 -9 15 -9 5z"/>
<path d="M4322 300 c0 -14 2 -19 5 -12 2 6 2 18 0 25 -3 6 -5 1 -5 -13z"/>
<path d="M1655 299 c-4 -6 -5 -12 -2 -15 2 -3 7 2 10 11 7 17 1 20 -8 4z"/>
<path d="M4343 270 c0 -25 2 -35 4 -22 2 12 2 32 0 45 -2 12 -4 2 -4 -23z"/>
<path d="M4393 270 c0 -25 2 -35 4 -22 2 12 2 32 0 45 -2 12 -4 2 -4 -23z"/>
<path d="M5206 290 c4 -14 13 -38 20 -55 11 -24 13 -25 8 -5 -4 14 -13 39 -20
55 -11 24 -13 25 -8 5z"/>
<path d="M5340 295 c0 -5 5 -17 10 -25 5 -8 10 -10 10 -5 0 6 -5 17 -10 25 -5
8 -10 11 -10 5z"/>
<path d="M1784 278 c3 -10 9 -26 13 -35 6 -16 5 -17 -12 -3 -17 14 -18 14 -7
-7 15 -28 34 -40 25 -16 -6 17 -5 17 15 -1 19 -17 22 -17 22 -3 0 10 -5 17
-10 17 -6 0 -20 15 -31 33 -12 17 -18 24 -15 15z"/>
<path d="M2131 248 c0 -27 2 -29 9 -13 8 21 8 21 23 -50 3 -11 5 0 6 25 1 35
-3 48 -19 58 -18 11 -20 10 -19 -20z"/>
<path d="M5320 275 c0 -5 5 -17 10 -25 5 -8 10 -10 10 -5 0 6 -5 17 -10 25 -5
8 -10 11 -10 5z"/>
<path d="M1887 263 c-4 -3 -7 -11 -7 -17 0 -6 5 -5 12 2 6 6 9 14 7 17 -3 3
-9 2 -12 -2z"/>
<path d="M4293 220 c0 -30 2 -43 4 -27 2 15 2 39 0 55 -2 15 -4 2 -4 -28z"/>
<path d="M4322 250 c0 -14 2 -19 5 -12 2 6 2 18 0 25 -3 6 -5 1 -5 -13z"/>
<path d="M5276 250 c4 -14 13 -38 20 -55 11 -24 13 -25 8 -5 -4 14 -13 39 -20
55 -11 24 -13 25 -8 5z"/>
<path d="M5300 255 c0 -5 5 -17 10 -25 5 -8 10 -10 10 -5 0 6 -5 17 -10 25 -5
8 -10 11 -10 5z"/>
<path d="M5251 245 c1 -19 18 -51 18 -35 0 8 -4 22 -9 30 -5 8 -9 11 -9 5z"/>
<path d="M2001 224 c0 -11 3 -14 6 -6 3 7 2 16 -1 19 -3 4 -6 -2 -5 -13z"/>
<path d="M2182 200 c0 -19 2 -27 5 -17 2 9 2 25 0 35 -3 9 -5 1 -5 -18z"/>
<path d="M5341 220 c0 -8 4 -22 9 -30 12 -18 12 -2 0 25 -6 13 -9 15 -9 5z"/>
<path d="M4343 185 c0 -22 2 -30 4 -17 2 12 2 30 0 40 -3 9 -5 -1 -4 -23z"/>
<path d="M5371 215 c1 -19 18 -51 18 -35 0 8 -4 22 -9 30 -5 8 -9 11 -9 5z"/>
<path d="M1942 180 c0 -14 2 -19 5 -12 2 6 2 18 0 25 -3 6 -5 1 -5 -13z"/>
<path d="M1991 184 c0 -11 3 -14 6 -6 3 7 2 16 -1 19 -3 4 -6 -2 -5 -13z"/>
<path d="M2210 147 l5 -52 3 44 c2 24 0 47 -5 52 -4 4 -6 -15 -3 -44z"/>
<path d="M4292 135 c0 -16 2 -22 5 -12 2 9 2 23 0 30 -3 6 -5 -1 -5 -18z"/>
<path d="M1863 138 c-13 -6 -25 -19 -28 -28 -3 -10 -15 -28 -26 -41 -10 -12
-16 -25 -11 -28 5 -3 12 -13 15 -21 4 -10 6 -8 6 8 1 12 6 22 11 22 6 0 11 8
11 18 1 9 5 4 9 -13 7 -27 8 -24 10 20 1 38 4 45 10 30 8 -18 9 -17 9 8 1 16
5 26 11 22 6 -3 10 -1 10 4 0 13 -8 13 -37 -1z"/>
<path d="M3645 120 c-30 -31 -48 -33 -24 -3 11 14 8 14 -10 -2 -12 -11 -28
-29 -34 -40 -9 -18 -9 -19 8 -5 10 8 19 13 20 10 0 -3 21 12 45 33 24 20 39
37 34 37 -6 0 -23 -13 -39 -30z"/>
<path d="M2240 77 l5 -62 3 54 c2 30 0 58 -5 62 -4 4 -6 -20 -3 -54z"/>
<path d="M4191 104 c0 -11 3 -14 6 -6 3 7 2 16 -1 19 -3 4 -6 -2 -5 -13z"/>
<path d="M3644 88 c-45 -52 -60 -73 -41 -59 19 15 24 2 5 -17 -7 -7 -8 -12 -2
-12 10 0 44 36 44 46 0 3 -8 3 -17 0 -11 -4 -7 3 10 19 15 14 27 30 27 35 0
15 -4 12 -26 -12z"/>
<path d="M3681 78 c-12 -34 -6 -52 9 -28 10 15 14 60 6 60 -2 0 -9 -14 -15
-32z"/>
<path d="M5490 105 c0 -5 5 -17 10 -25 5 -8 10 -10 10 -5 0 6 -5 17 -10 25 -5
8 -10 11 -10 5z"/>
<path d="M5421 64 c0 -11 3 -14 6 -6 3 7 2 16 -1 19 -3 4 -6 -2 -5 -13z"/>
<path d="M5560 75 c0 -5 5 -17 10 -25 5 -8 10 -10 10 -5 0 6 -5 17 -10 25 -5
8 -10 11 -10 5z"/>
<path d="M2262 60 c0 -8 4 -26 8 -40 6 -20 8 -21 8 -5 0 11 -3 29 -8 40 -5 12
-8 14 -8 5z"/>
<path d="M2222 35 c0 -17 2 -22 5 -12 2 9 2 23 0 30 -3 6 -5 -1 -5 -18z"/>
<path d="M3534 28 l-19 -23 23 19 c12 11 22 21 22 23 0 8 -8 2 -26 -19z"/>
<path d="M4931 34 c0 -11 3 -14 6 -6 3 7 2 16 -1 19 -3 4 -6 -2 -5 -13z"/>
<path d="M1902 20 c0 -14 2 -19 5 -12 2 6 2 18 0 25 -3 6 -5 1 -5 -13z"/>
<path d="M1831 14 c0 -11 3 -14 6 -6 3 7 2 16 -1 19 -3 4 -6 -2 -5 -13z"/>
<path d="M3549 13 c-13 -16 -12 -17 4 -4 16 13 21 21 13 21 -2 0 -10 -8 -17
-17z"/>
</g>
</svg>
